<svg width="18" height="19" viewBox="0 0 18 19" fill="none" xmlns="http://www.w3.org/2000/svg">
<path d="M14.75 0.251221C16.5449 0.251221 18 1.70629 18 3.50122V15.0012C18 16.7961 16.5449 18.2512 14.75 18.2512H3.25C1.45507 18.2512 0 16.7961 0 15.0012V3.50122C0 1.70629 1.45507 0.251221 3.25 0.251221H14.75ZM16.5 5.75122H1.5V15.0012C1.5 15.9677 2.2835 16.7512 3.25 16.7512H14.75C15.7165 16.7512 16.5 15.9677 16.5 15.0012V5.75122ZM14.75 1.75122H3.25C2.2835 1.75122 1.5 2.53472 1.5 3.50122V4.25122H16.5V3.50122C16.5 2.53472 15.7165 1.75122 14.75 1.75122Z" fill="#F5F5F5"/>
</svg>
