<svg width="14" height="14" viewBox="0 0 14 14" fill="none" xmlns="http://www.w3.org/2000/svg">
<circle cx="7" cy="7" r="7" fill="#40475C"/>
<path d="M3.83214 3.89733L3.8624 3.86228C3.97335 3.75134 4.14696 3.74125 4.2693 3.83202L4.30435 3.86228L7.00004 6.55784L9.69575 3.86228C9.81779 3.74024 10.0156 3.74024 10.1377 3.86228C10.2597 3.98432 10.2597 4.18219 10.1377 4.30422L7.44212 6.99992L10.1377 9.69563C10.2486 9.80654 10.2587 9.98017 10.1679 10.1025L10.1377 10.1375C10.0267 10.2485 9.85312 10.2586 9.73079 10.1678L9.69575 10.1375L7.00004 7.442L4.30435 10.1375C4.18231 10.2596 3.98444 10.2596 3.8624 10.1375C3.74037 10.0155 3.74037 9.81767 3.8624 9.69563L6.55796 6.99992L3.8624 4.30422C3.75146 4.19328 3.74137 4.01967 3.83214 3.89733L3.8624 3.86228L3.83214 3.89733Z" fill="#969CB1"/>
</svg>
