<svg width="13" height="13" viewBox="0 0 13 13" fill="none" xmlns="http://www.w3.org/2000/svg">
<path d="M11.7083 -1C12.974 -1 14 0.0260166 14 1.29167V11.7083C14 12.974 12.974 14 11.7083 14H1.29167C0.0260166 14 -1 12.974 -1 11.7083V1.29167C-1 0.0260166 0.0260166 -1 1.29167 -1H11.7083ZM11.7083 0.25H1.29167C0.716367 0.25 0.25 0.716367 0.25 1.29167V11.7083C0.25 12.2837 0.716367 12.75 1.29167 12.75H11.7083C12.2837 12.75 12.75 12.2837 12.75 11.7083V1.29167C12.75 0.716367 12.2837 0.25 11.7083 0.25ZM4.83333 8.53275L10.2247 3.14139C10.4688 2.89732 10.8645 2.89732 11.1086 3.14139C11.3305 3.36328 11.3507 3.7105 11.1691 3.95517L11.1086 4.02527L5.27525 9.85858C5.05342 10.0805 4.70617 10.1007 4.46149 9.91908L4.39139 9.85858L1.89139 7.35858C1.64732 7.1145 1.64732 6.71883 1.89139 6.47475C2.11328 6.25283 2.4605 6.23267 2.70517 6.41425L2.77527 6.47475L4.83333 8.53275Z" fill="#37FFDB"/>
</svg>
