<svg width="18" height="20" viewBox="0 0 18 20" fill="none" xmlns="http://www.w3.org/2000/svg">
<path d="M7.5495 0.782497C8.3874 0.0759172 9.6126 0.0759172 10.4505 0.782507L17.2005 6.47461C17.7074 6.90213 18 7.53151 18 8.19467V17.9974C18 18.9639 17.2165 19.7474 16.25 19.7474H12.75C11.7835 19.7474 11 18.9639 11 17.9974V12.4974C11 12.3594 10.8881 12.2474 10.75 12.2474H7.25C7.1119 12.2474 6.99999 12.3594 6.99999 12.4974V17.9974C6.99999 18.9639 6.2165 19.7474 5.25 19.7474H1.75C0.7835 19.7474 0 18.9639 0 17.9974V8.19467C0 7.53151 0.29255 6.90213 0.79952 6.47461L7.5495 0.782497ZM9.4835 1.92921C9.2042 1.69368 8.7958 1.69368 8.5165 1.92921L1.76651 7.62132C1.59752 7.76382 1.5 7.97362 1.5 8.19467V17.9974C1.5 18.1355 1.61193 18.2474 1.75 18.2474H5.25C5.38807 18.2474 5.49999 18.1355 5.49999 17.9974V12.4974C5.49999 11.5309 6.2835 10.7474 7.25 10.7474H10.75C11.7165 10.7474 12.5 11.5309 12.5 12.4974V17.9974C12.5 18.1355 12.6119 18.2474 12.75 18.2474H16.25C16.3881 18.2474 16.5 18.1355 16.5 17.9974V8.19467C16.5 7.97362 16.4025 7.76382 16.2335 7.62132L9.4835 1.92921Z" fill="#F5F5F5"/>
</svg>
