<svg width="13" height="14" viewBox="0 0 13 14" fill="none" xmlns="http://www.w3.org/2000/svg">
<rect y="0.5" width="13" height="13" rx="6.5" fill="#37FFDB"/>
<path d="M6.55888 10.1676C7.048 10.1676 7.47825 10.071 7.84962 9.87772C8.22401 9.68147 8.51537 9.40973 8.72371 9.06251C8.93506 8.71529 9.04073 8.31222 9.04073 7.85329V7.84423C9.04073 7.42757 8.95015 7.05921 8.769 6.73917C8.59086 6.4161 8.34328 6.16248 8.02625 5.97831C7.71224 5.79413 7.35144 5.70204 6.94384 5.70204C6.62983 5.70204 6.35055 5.76545 6.10598 5.89226C5.86444 6.01907 5.67875 6.19268 5.54892 6.41309H5.4674L5.63044 4.55169H8.65124V3.46475H4.56615L4.26271 7.33246H5.4357C5.47193 7.26302 5.51571 7.1981 5.56704 7.13771C5.62139 7.07431 5.67875 7.01845 5.73914 6.97014C5.85085 6.87655 5.97615 6.8071 6.11504 6.76181C6.25393 6.7135 6.40489 6.68935 6.56793 6.68935C6.80042 6.68935 7.00573 6.73917 7.18387 6.83881C7.36201 6.93844 7.50089 7.07733 7.60053 7.25547C7.70319 7.43361 7.75451 7.63892 7.75451 7.8714V7.88046C7.75451 8.11294 7.70319 8.31977 7.60053 8.50092C7.50089 8.67906 7.36201 8.81946 7.18387 8.92211C7.00573 9.02477 6.79891 9.0761 6.5634 9.0761C6.35809 9.0761 6.17392 9.03836 6.01088 8.96287C5.84783 8.88437 5.71348 8.78021 5.6078 8.65038C5.50514 8.51753 5.43721 8.37109 5.404 8.21107L5.39494 8.17937H4.15401L4.15854 8.24277C4.18572 8.60509 4.30045 8.93268 4.50274 9.22555C4.70805 9.5154 4.98583 9.74487 5.33606 9.91395C5.6863 10.083 6.09391 10.1676 6.55888 10.1676Z" fill="#272A35"/>
</svg>
