<svg width="13" height="14" viewBox="0 0 13 14" fill="none" xmlns="http://www.w3.org/2000/svg">
<rect y="0.5" width="13" height="13" rx="6.5" fill="#37FFDB"/>
<path d="M6.59511 10.1676C7.08725 10.1676 7.52052 10.0679 7.89491 9.86866C8.27232 9.66637 8.5667 9.3901 8.77805 9.03987C8.99242 8.68963 9.09961 8.29259 9.09961 7.84876V7.8397C9.09961 7.42606 9.01054 7.0577 8.8324 6.73464C8.65426 6.41158 8.40517 6.15796 8.08513 5.97378C7.76508 5.7896 7.3922 5.69751 6.96648 5.69751C6.66757 5.69751 6.4064 5.7428 6.18297 5.83338C5.95955 5.92094 5.77386 6.03718 5.62592 6.18211C5.47797 6.32704 5.36324 6.48404 5.28172 6.65312H5.1232V7.86687H5.39494V7.86234C5.39494 7.6359 5.44778 7.43662 5.55345 7.26452C5.66215 7.08941 5.80707 6.95203 5.98823 6.85239C6.16939 6.75276 6.37168 6.70294 6.59511 6.70294C6.82457 6.70294 7.02687 6.75427 7.20198 6.85692C7.38012 6.95958 7.52052 7.09997 7.62318 7.27811C7.72583 7.45323 7.77716 7.65552 7.77716 7.88499V7.89405C7.77716 8.11747 7.72281 8.31977 7.61412 8.50092C7.50844 8.67906 7.36503 8.82097 7.18387 8.92664C7.00573 9.03232 6.80646 9.08516 6.58605 9.08516C6.36564 9.08516 6.16486 9.03232 5.9837 8.92664C5.80254 8.81795 5.65913 8.67151 5.55345 8.48734C5.44778 8.30316 5.39494 8.09634 5.39494 7.86687L5.19114 6.7754C5.19114 6.72709 5.19114 6.6818 5.19114 6.63953C5.19114 6.59424 5.19265 6.54895 5.19567 6.50366C5.21378 6.10814 5.27266 5.75035 5.3723 5.43031C5.47495 5.11026 5.62743 4.85664 5.82972 4.66945C6.03201 4.48225 6.29016 4.38865 6.60417 4.38865C6.7823 4.38865 6.94082 4.41734 7.0797 4.4747C7.21859 4.53207 7.33634 4.61208 7.43296 4.71474C7.5326 4.81437 7.60808 4.93363 7.65941 5.07252L7.67752 5.11328H9.01356L9.0045 5.06799C8.93808 4.72681 8.79466 4.42337 8.57425 4.15768C8.35686 3.89198 8.07909 3.68214 7.74093 3.52816C7.40277 3.37417 7.02234 3.29718 6.59964 3.29718C6.04409 3.29718 5.56402 3.43607 5.15944 3.71384C4.75485 3.99162 4.44236 4.39167 4.22195 4.91401C4.00456 5.43333 3.89586 6.05681 3.89586 6.78446V6.79352C3.89586 7.3702 3.9638 7.86989 4.09967 8.29259C4.23855 8.71529 4.43028 9.06553 4.67484 9.3433C4.92242 9.62108 5.20925 9.8279 5.53534 9.96377C5.86142 10.0996 6.21468 10.1676 6.59511 10.1676Z" fill="#272A35"/>
</svg>
