<svg width="13" height="14" viewBox="0 0 13 14" fill="none" xmlns="http://www.w3.org/2000/svg">
<rect y="0.5" width="13" height="13" rx="6.5" fill="#37FFDB"/>
<path d="M4.17666 10H8.89128V8.89947H5.64403L6.01088 9.1395V8.54168L5.64403 9.1395L7.2201 7.6676C7.61865 7.29925 7.93265 6.97769 8.16212 6.70294C8.39158 6.42818 8.55463 6.17305 8.65124 5.93755C8.74786 5.69902 8.79617 5.45597 8.79617 5.20839V5.1948C8.79617 4.81739 8.69804 4.48678 8.50179 4.20297C8.30855 3.91915 8.03984 3.69724 7.69564 3.53721C7.35446 3.37719 6.95893 3.29718 6.50906 3.29718C6.03201 3.29718 5.61233 3.38625 5.25001 3.56439C4.89072 3.74253 4.60842 3.99011 4.4031 4.30713C4.20081 4.62416 4.09967 4.991 4.09967 5.40766L4.10419 5.43031H5.36777V5.40766C5.36777 5.19933 5.41306 5.01817 5.50363 4.86419C5.59421 4.70719 5.72102 4.58491 5.88407 4.49735C6.04711 4.40677 6.2343 4.36148 6.44565 4.36148C6.65398 4.36148 6.83363 4.40224 6.9846 4.48376C7.13556 4.56226 7.25029 4.67247 7.32879 4.81437C7.41032 4.95628 7.45108 5.12083 7.45108 5.30803V5.32161C7.45108 5.4756 7.41786 5.62505 7.35144 5.76998C7.28501 5.91188 7.16726 6.07945 6.99818 6.27269C6.8291 6.4629 6.59058 6.70596 6.28261 7.00185L4.17666 9.08063V10Z" fill="#272A35"/>
</svg>
