<svg width="13" height="14" viewBox="0 0 13 14" fill="none" xmlns="http://www.w3.org/2000/svg">
<rect y="0.5" width="13" height="13" rx="6.5" fill="#37FFDB"/>
<path d="M6.5 10.1449C7.01026 10.1449 7.4556 10.0619 7.83604 9.89583C8.21647 9.72977 8.51236 9.49729 8.72371 9.19838C8.93808 8.89947 9.04526 8.55225 9.04526 8.15672V8.14767C9.04526 7.70383 8.89882 7.34756 8.60595 7.07884C8.31308 6.81012 7.92359 6.65312 7.43749 6.60783V6.58066C7.69413 6.52631 7.9251 6.43271 8.13042 6.29986C8.33573 6.16701 8.49877 5.99793 8.61954 5.79262C8.74031 5.58731 8.8007 5.34879 8.8007 5.07705V5.06799C8.8007 4.71776 8.70559 4.41281 8.51537 4.15315C8.32818 3.89047 8.06097 3.68667 7.71375 3.54174C7.36654 3.3938 6.95893 3.31982 6.49094 3.31982C6.03201 3.31982 5.62894 3.39984 5.28172 3.55986C4.93752 3.71686 4.66276 3.94029 4.45745 4.23014C4.25516 4.51697 4.13741 4.85664 4.10419 5.24915L4.09967 5.3035H5.35871L5.36324 5.26274C5.38135 5.08158 5.43872 4.92458 5.53534 4.79173C5.63195 4.65586 5.76178 4.55169 5.92483 4.47923C6.08787 4.40677 6.27657 4.37054 6.49094 4.37054C6.70531 4.37054 6.88798 4.40677 7.03894 4.47923C7.19293 4.54868 7.30917 4.64982 7.38767 4.78267C7.46919 4.9125 7.50995 5.06799 7.50995 5.24915V5.25821C7.50995 5.43333 7.46315 5.58882 7.36956 5.72469C7.27596 5.85754 7.14462 5.9617 6.97554 6.03718C6.80646 6.11267 6.60718 6.15041 6.37772 6.15041H5.64856V7.12413H6.39583C6.79136 7.12413 7.09933 7.20716 7.31974 7.37322C7.54316 7.53928 7.65488 7.77931 7.65488 8.09332V8.10238C7.65488 8.28655 7.60657 8.4496 7.50995 8.5915C7.41635 8.73341 7.282 8.84512 7.10688 8.92664C6.93478 9.00514 6.73249 9.0444 6.5 9.0444C6.14674 9.0444 5.85991 8.96287 5.6395 8.79983C5.42211 8.63679 5.29832 8.42846 5.26813 8.17484L5.2636 8.12502H3.95474L3.95927 8.1839C3.99248 8.57339 4.11627 8.91608 4.33064 9.21197C4.54501 9.50484 4.83637 9.7343 5.20473 9.90036C5.5761 10.0634 6.00786 10.1449 6.5 10.1449Z" fill="#272A35"/>
</svg>
