<svg width="13" height="14" viewBox="0 0 13 14" fill="none" xmlns="http://www.w3.org/2000/svg">
<rect y="0.5" width="13" height="13" rx="6.5" fill="#37FFDB"/>
<path d="M7.00271 10H8.30704V8.79983H9.15848V7.70383H8.30704V3.46475H6.38678C6.21166 3.73347 6.03654 4.00671 5.86142 4.28449C5.6863 4.55924 5.51118 4.83853 5.33606 5.12234C5.16396 5.40313 4.99036 5.68846 4.81524 5.97831C4.64314 6.26514 4.47255 6.55499 4.30347 6.84786C4.13439 7.13771 3.96682 7.43059 3.80076 7.72648V8.79983H7.00271V10ZM5.03263 7.74006V7.6676C5.15038 7.45625 5.27115 7.24339 5.39494 7.02902C5.52175 6.81163 5.65007 6.59575 5.7799 6.38138C5.91275 6.16399 6.04409 5.94812 6.17392 5.73375C6.30677 5.51938 6.4381 5.30954 6.56793 5.10422C6.70078 4.89891 6.83061 4.69813 6.95742 4.50188H7.02989V7.74006H5.03263Z" fill="#272A35"/>
</svg>
