<svg width="213" height="63" viewBox="0 0 213 63" fill="none" xmlns="http://www.w3.org/2000/svg">
<path d="M40.6475 18.7494H49.3618V16.0424H28.9666V18.7494H37.6809V42H40.6475V18.7494ZM76.3369 42L68.3642 31.3945C69.3778 31.2214 70.3172 30.9247 71.1825 30.5045C72.0477 30.0842 72.7894 29.5651 73.4074 28.947C74.0502 28.3043 74.5446 27.5626 74.8907 26.7221C75.2368 25.8568 75.4099 24.8803 75.4099 23.7926C75.4099 22.6307 75.1874 21.58 74.7424 20.6406C74.2974 19.6764 73.667 18.8606 72.8512 18.1932C72.0354 17.501 71.0465 16.9694 69.8846 16.5986C68.7474 16.2278 67.4619 16.0424 66.028 16.0424H54.8662V42H57.7958V31.9136H65.2122L72.7399 42H76.3369ZM72.4433 23.9038C72.4433 24.7444 72.2702 25.4984 71.9241 26.1659C71.6027 26.8333 71.1454 27.4019 70.5521 27.8716C69.9588 28.3166 69.2542 28.6627 68.4384 28.9099C67.6226 29.1572 66.7326 29.2808 65.7684 29.2808H57.7958V18.7494H65.8055C67.9069 18.7494 69.5385 19.2067 70.7004 20.1214C71.8623 21.0114 72.4433 22.2722 72.4433 23.9038ZM94.0124 15.857H91.2683L79.4391 42H82.4427L85.5206 35.1398H99.6489L102.69 42H105.842L94.0124 15.857ZM98.4994 32.5069H86.6701L92.6033 19.2685L98.4994 32.5069ZM131.689 37.8839L129.761 35.9927C128.525 37.1793 127.264 38.1064 125.978 38.7738C124.693 39.4166 123.16 39.738 121.38 39.738C119.946 39.738 118.611 39.466 117.375 38.9222C116.164 38.3536 115.101 37.5872 114.186 36.6231C113.296 35.6589 112.592 34.5217 112.072 33.2115C111.578 31.9012 111.331 30.4921 111.331 28.9841C111.331 27.4761 111.578 26.0793 112.072 24.7938C112.592 23.4836 113.296 22.3464 114.186 21.3822C115.101 20.4181 116.164 19.6641 117.375 19.1202C118.611 18.5763 119.946 18.3044 121.38 18.3044C123.16 18.3044 124.68 18.6381 125.941 19.3056C127.227 19.9731 128.426 20.826 129.538 21.8643L131.541 19.7135C130.898 19.0955 130.23 18.5393 129.538 18.0448C128.846 17.5257 128.092 17.093 127.276 16.7469C126.46 16.3761 125.57 16.0918 124.606 15.894C123.667 15.6963 122.604 15.5974 121.417 15.5974C119.514 15.5974 117.758 15.9559 116.151 16.6728C114.545 17.365 113.16 18.3291 111.998 19.5652C110.836 20.7766 109.922 22.198 109.254 23.8297C108.611 25.4613 108.29 27.2042 108.29 29.0583C108.29 30.9371 108.611 32.6923 109.254 34.324C109.922 35.9556 110.836 37.3771 111.998 38.5884C113.16 39.7751 114.532 40.7145 116.114 41.4067C117.697 42.0989 119.427 42.445 121.306 42.445C122.493 42.445 123.568 42.3337 124.532 42.1112C125.496 41.8888 126.399 41.5797 127.239 41.1842C128.08 40.7886 128.858 40.3189 129.575 39.7751C130.317 39.2065 131.021 38.5761 131.689 37.8839ZM147.311 27.3896L158.436 16.0424H154.653L139.746 31.5428V16.0424H136.817V42H139.746V35.0285L145.271 29.4291L155.247 42H158.918L147.311 27.3896ZM182.233 16.0424H163.47V42H182.419V39.3301H166.399V30.2449H180.565V27.575H166.399V18.7123H182.233V16.0424ZM209.783 42L201.81 31.3945C202.823 31.2214 203.763 30.9247 204.628 30.5045C205.493 30.0842 206.235 29.5651 206.853 28.947C207.496 28.3043 207.99 27.5626 208.336 26.7221C208.682 25.8568 208.855 24.8803 208.855 23.7926C208.855 22.6307 208.633 21.58 208.188 20.6406C207.743 19.6764 207.113 18.8606 206.297 18.1932C205.481 17.501 204.492 16.9694 203.33 16.5986C202.193 16.2278 200.908 16.0424 199.474 16.0424H188.312V42H191.241V31.9136H198.658L206.186 42H209.783ZM205.889 23.9038C205.889 24.7444 205.716 25.4984 205.37 26.1659C205.048 26.8333 204.591 27.4019 203.998 27.8716C203.404 28.3166 202.7 28.6627 201.884 28.9099C201.068 29.1572 200.178 29.2808 199.214 29.2808H191.241V18.7494H199.251C201.352 18.7494 202.984 19.2067 204.146 20.1214C205.308 21.0114 205.889 22.2722 205.889 23.9038Z" fill="white"/>
<path d="M11.0982 20.0742L13.5176 15.0153L27 40.3071L21.9377 40.3071L11.0982 20.0742Z" fill="url(#paint0_linear_1540_28571)"/>
<path d="M9.98473 31.0462L5.06293 31.0463L-1.34477e-05 40.3084L5.06237 40.3084L9.98473 31.0462Z" fill="url(#paint1_linear_1540_28571)"/>
<defs>
<linearGradient id="paint0_linear_1540_28571" x1="11.5405" y1="16.0664" x2="24.9941" y2="41.3735" gradientUnits="userSpaceOnUse">
<stop offset="0.473958" stop-color="#37FFDB"/>
<stop offset="1" stop-color="#37FFDB" stop-opacity="0.48"/>
</linearGradient>
<linearGradient id="paint1_linear_1540_28571" x1="8.0125" y1="29.9978" x2="1.97345" y2="41.3576" gradientUnits="userSpaceOnUse">
<stop stop-color="#37FFDB"/>
<stop offset="1" stop-color="#37FFDB" stop-opacity="0.36"/>
</linearGradient>
</defs>
</svg>
