<svg width="16" height="20" viewBox="0 0 16 20" fill="none" xmlns="http://www.w3.org/2000/svg">
<path d="M13.7507 19.2476C14.9927 19.2476 15.9995 18.2408 15.9995 16.9987V16.4233C15.9995 15.529 15.6799 14.6642 15.0984 13.9848C13.529 12.1513 11.1419 11.2465 7.99648 11.2465C4.85059 11.2465 2.46458 12.1516 0.89828 13.9859C0.31852 14.6648 0 15.5283 0 16.4211V16.9987C0 18.2408 1.00685 19.2476 2.24887 19.2476H13.7507ZM13.7507 17.7476H2.24887C1.83528 17.7476 1.5 17.4123 1.5 16.9987V16.4211C1.5 15.8854 1.69111 15.3673 2.03897 14.96C3.29227 13.4923 5.25815 12.7465 7.99648 12.7465C10.7348 12.7465 12.7024 13.4923 13.9589 14.9602C14.3078 15.3679 14.4995 15.8868 14.4995 16.4233V16.9987C14.4995 17.4123 14.1642 17.7476 13.7507 17.7476ZM7.99648 0.251221C10.7579 0.251221 12.9965 2.4898 12.9965 5.25122C12.9965 8.01265 10.7579 10.2512 7.99648 10.2512C5.23503 10.2512 2.99646 8.01265 2.99646 5.25122C2.99646 2.4898 5.23503 0.251221 7.99648 0.251221ZM7.99648 1.75122C6.06348 1.75122 4.49646 3.31823 4.49646 5.25122C4.49646 7.18422 6.06348 8.75124 7.99648 8.75124C9.92948 8.75124 11.4965 7.18422 11.4965 5.25122C11.4965 3.31823 9.92948 1.75122 7.99648 1.75122Z" fill="#F5F5F5"/>
</svg>
