<svg width="18" height="20" viewBox="0 0 18 20" fill="none" xmlns="http://www.w3.org/2000/svg">
<path d="M9.0001 0.247314C13.05 0.247314 16.3568 3.44206 16.4959 7.49637L16.5001 7.74731V11.8443L17.8801 15.0003C17.9492 15.1582 17.9848 15.3287 17.9848 15.5011C17.9848 16.1914 17.4252 16.7511 16.7348 16.7511L12.0001 16.7526C12.0001 18.4094 10.657 19.7526 9.0001 19.7526C7.4024 19.7526 6.09645 18.5036 6.0052 16.9288L5.99966 16.7503L1.27498 16.7511C1.10364 16.7511 0.934132 16.7158 0.776972 16.6476C0.143772 16.3725 -0.146578 15.6363 0.128462 15.0031L1.50011 11.8452V7.74721C1.50071 3.59242 4.8522 0.247314 9.0001 0.247314ZM10.4997 16.7503L7.5001 16.7526C7.5001 17.581 8.1717 18.2526 9.0001 18.2526C9.7798 18.2526 10.4206 17.6577 10.4932 16.897L10.4997 16.7503ZM9.0001 1.74731C5.67995 1.74731 3.00059 4.42157 3.00011 7.74731V12.1569L1.65613 15.2511H16.3526L15.0001 12.1579L15.0002 7.76017L14.9965 7.53497C14.8854 4.30149 12.2417 1.74731 9.0001 1.74731Z" fill="#F5F5F5"/>
</svg>
