<svg width="24" height="24" viewBox="0 0 24 24" fill="none" xmlns="http://www.w3.org/2000/svg">
<path d="M20.9519 3.04785C19.5543 1.65033 17.2885 1.6504 15.8911 3.048L3.94103 14.9994C3.5347 15.4058 3.2491 15.9169 3.116 16.476L2.02041 21.0774C1.96009 21.3308 2.03552 21.5973 2.21968 21.7815C2.40385 21.9656 2.67037 22.0411 2.92373 21.9807L7.52498 20.8852C8.08418 20.752 8.59546 20.4663 9.00191 20.0598L20.952 8.10837C22.3493 6.71088 22.3493 4.44526 20.9519 3.04785ZM16.9518 4.1086C17.7634 3.29684 19.0795 3.2968 19.8912 4.10851C20.7028 4.92016 20.7029 6.23608 19.8913 7.04777L19 7.93921L16.0606 4.99988L16.9518 4.1086ZM15 6.0606L17.9394 8.99994L7.94119 18.9992C7.73104 19.2094 7.46668 19.3571 7.17755 19.426L3.76191 20.2392L4.57521 16.8234C4.64402 16.5344 4.79168 16.2701 5.00175 16.06L15 6.0606Z" fill="#797F94"/>
</svg>
