<svg width="15" height="15" viewBox="0 0 15 15" fill="none" xmlns="http://www.w3.org/2000/svg">
<path d="M7.30192 0.375C7.60252 0.375 7.85102 0.598258 7.89037 0.888063L7.89583 0.968631L7.89678 6.70833H13.6388C13.9667 6.70833 14.2326 6.97417 14.2326 7.30208C14.2326 7.60268 14.0092 7.8511 13.7194 7.89045L13.6388 7.89583H7.89678L7.89836 13.6347C7.89844 13.9626 7.63268 14.2286 7.30477 14.2286C7.00418 14.2286 6.75567 14.0054 6.71633 13.7155L6.71086 13.6349L6.70928 7.89583H0.97049C0.642565 7.89583 0.37674 7.62999 0.37674 7.30208C0.37674 7.00149 0.600108 6.75306 0.889922 6.71372L0.97049 6.70833H6.70928L6.70833 0.968869C6.70825 0.640952 6.97401 0.375 7.30192 0.375Z" fill="#37FFDB"/>
</svg>
