<svg width="19" height="19" viewBox="0 0 19 19" fill="none" xmlns="http://www.w3.org/2000/svg">
<path d="M8 0.0012207C12.0041 0.0012207 15.25 3.24716 15.25 7.25122C15.25 8.98312 14.6427 10.5731 13.6295 11.82L18.5303 16.7209C18.8232 17.0138 18.8232 17.4886 18.5303 17.7815C18.2641 18.0478 17.8474 18.072 17.5538 17.8541L17.4697 17.7815L12.5688 12.8807C11.3219 13.8939 9.7319 14.5012 8 14.5012C3.99594 14.5012 0.75 11.2553 0.75 7.25122C0.75 3.24716 3.99594 0.0012207 8 0.0012207ZM8 1.50122C4.82436 1.50122 2.25 4.07558 2.25 7.25122C2.25 10.4268 4.82436 13.0012 8 13.0012C11.1756 13.0012 13.75 10.4268 13.75 7.25122C13.75 4.07558 11.1756 1.50122 8 1.50122Z" fill="#F5F5F5"/>
</svg>
